<?xml version="1.0" standalone="no"?>
<!DOCTYPE svg PUBLIC "-//W3C//DTD SVG 20010904//EN"
 "http://www.w3.org/TR/2001/REC-SVG-20010904/DTD/svg10.dtd">
<svg version="1.0" xmlns="http://www.w3.org/2000/svg"
 width="1024.000000pt" height="1024.000000pt" viewBox="0 0 1024.000000 1024.000000"
 preserveAspectRatio="xMidYMid meet">

<g transform="translate(0.000000,1024.000000) scale(0.100000,-0.100000)"
fill="#000000" stroke="none">
<path d="M2085 10140 c-3 -5 -39 -10 -79 -10 -121 0 -423 -70 -581 -135 -287
-118 -486 -252 -715 -483 -329 -332 -502 -680 -587 -1182 -17 -99 -18 -280
-18 -3205 0 -2963 1 -3105 18 -3210 111 -661 417 -1132 965 -1487 53 -34 294
-158 308 -158 3 0 20 -7 37 -14 107 -50 362 -115 527 -137 139 -18 412 -20
2765 -22 2995 -2 3426 0 3560 19 216 32 382 74 540 137 54 22 325 159 338 170
6 7 32 25 57 41 206 132 441 374 589 606 52 80 138 242 160 299 87 227 125
370 151 574 14 106 13 6206 0 6336 -10 90 -41 263 -60 326 -52 179 -118 351
-147 386 -7 8 -13 20 -13 25 0 20 -132 228 -206 324 -83 110 -304 327 -391
387 -31 21 -83 57 -117 80 -33 24 -67 43 -73 43 -7 0 -13 4 -13 8 0 10 -122
71 -225 114 -38 16 -79 33 -90 38 -31 13 -136 48 -180 60 -89 24 -290 60 -335
60 -27 0 -52 5 -55 10 -4 7 -1037 10 -3065 10 -2028 0 -3061 -3 -3065 -10z
m2773 -3502 l2 -368 -824 0 -825 0 -1 -425 0 -425 712 -2 713 -3 3 -352 2
-353 -720 0 -720 0 0 -735 0 -735 -445 0 -445 0 0 1885 0 1885 1273 -2 1272
-3 3 -367z m3090 0 l2 -368 -815 0 -816 0 1 -420 1 -420 712 -2 712 -3 3 -352
2 -353 -720 0 -720 0 0 -740 0 -740 -436 2 -435 3 0 1880 c1 1034 1 1881 1
1883 0 1 564 1 1253 0 l1252 -3 3 -367z"/>
</g>
</svg>
